<svg width="331" height="197" viewBox="0 0 331 197" fill="none" xmlns="http://www.w3.org/2000/svg">
<g clip-path="url(#clip0_152_25)">
<g clip-path="url(#clip1_152_25)">
<path fill-rule="evenodd" clip-rule="evenodd" d="M239.914 8.92833C243.657 8.80276 247.305 9.28316 250.858 10.3684C251.641 10.9064 252.409 11.3868 253.162 11.8084C248.621 11.1028 244.205 10.1432 239.914 8.92833Z" fill="black"/>
<path fill-rule="evenodd" clip-rule="evenodd" d="M273.323 102.82C272.939 102.82 272.555 102.82 272.171 102.82C272.051 102.001 271.763 101.233 271.307 100.516C269.923 98.4822 268.29 96.7541 266.411 95.3319C265.885 94.1251 265.213 92.9731 264.395 91.8758C264.008 91.4426 263.528 91.2502 262.955 91.2997C263.04 90.6938 262.945 90.1177 262.667 89.5717C261.293 87.9133 260.045 86.1852 258.922 84.3875C258.45 83.4428 257.97 82.4825 257.482 81.5073C256.099 80.429 254.851 79.277 253.738 78.0512C252.383 76.6918 251.231 75.1555 250.282 73.443C249.81 72.4983 249.33 71.5381 248.842 70.5629C247.458 69.4846 246.21 68.3325 245.098 67.1068C243.178 64.9945 241.258 62.8828 239.338 60.7705C239.305 60.1317 239.113 59.5557 238.762 59.0424C238.212 57.6006 237.444 56.2568 236.458 55.0103C236.76 54.6117 237.144 54.3236 237.61 54.1462C236.58 53.091 235.811 51.8433 235.305 50.4021C234.206 49.9136 233.054 49.7212 231.849 49.8261C231.553 48.56 230.977 47.4079 230.121 46.3699C230.242 46.0324 230.434 45.7444 230.697 45.5059C228.616 43.3429 226.888 40.9432 225.513 38.3056C225.633 37.968 225.826 37.68 226.089 37.4416C223.551 36.6299 222.015 34.9019 221.481 32.2573C220.935 31.9791 220.359 31.8835 219.753 31.9693C219.843 31.1785 219.747 30.41 219.465 29.6652C218.313 28.8974 217.161 28.129 216.009 27.3611C213.638 28.0777 211.239 28.0777 208.808 27.3611C204.041 28.1883 199.432 29.3404 194.984 30.8173C193.483 30.887 192.331 31.463 191.528 32.5454C189.945 32.7256 188.409 32.5338 186.919 31.9693C187.281 31.4411 187.473 30.8651 187.496 30.2413C193.236 23.348 200.148 17.9714 208.232 14.1126C210.936 13.8908 213.432 13.123 215.721 11.8085C217.255 12.0383 218.695 12.0383 220.041 11.8085C223.835 12.9237 227.675 12.9237 231.561 11.8085C232.268 11.892 232.94 12.0839 233.577 12.3845C234.949 11.2947 236.485 11.0067 238.186 11.5205C237.801 11.7123 237.418 11.9047 237.034 12.0965C240.13 12.5487 243.202 13.1247 246.25 13.8246C252.367 16.6431 258.319 19.715 264.107 23.041C267.627 26.7511 271.371 30.3035 275.339 33.6974C276.545 35.0096 277.409 36.5453 277.931 38.3056C278.507 38.5936 279.083 38.8816 279.659 39.1696C279.467 39.3614 279.275 39.5538 279.083 39.7456C279.751 40.798 280.519 41.7577 281.387 42.6258C281.124 42.8642 280.932 43.1522 280.811 43.4898C283.222 46.4321 285.046 49.6964 286.284 53.2822C287.205 59.2308 287.11 65.3752 285.996 71.7149C286.242 72.8013 286.434 73.8572 286.572 74.8831C285.833 75.5374 285.256 76.3053 284.843 77.1872C285.346 79.3594 285.346 81.4711 284.843 83.5234C283.79 85.3828 282.734 87.2065 281.675 88.9956C281.712 91.3608 281.04 93.4731 279.659 95.3319C276.67 94.9535 275.134 96.3935 275.051 99.6521C275.19 100.795 275.574 101.851 276.203 102.82C275.284 103.358 274.325 103.358 273.323 102.82Z" fill="black"/>
<path fill-rule="evenodd" clip-rule="evenodd" d="M216.873 10.6564C216.489 11.0406 216.105 11.4242 215.721 11.8084C213.432 13.1229 210.936 13.8907 208.233 14.1125C208.952 13.1701 209.912 12.4979 211.113 12.0964C213 11.438 214.92 10.9576 216.873 10.6564Z" fill="black"/>
<path fill-rule="evenodd" clip-rule="evenodd" d="M239.914 8.92817C244.205 10.143 248.621 11.1027 253.162 11.8083C259.198 14.9528 264.958 18.6008 270.443 22.7527C271.787 24.4808 273.323 26.0171 275.051 27.3609C276.264 28.8165 277.608 30.1604 279.083 31.3931C280.182 33.3948 281.43 35.3152 282.828 37.1533C285 41.2477 286.824 45.4717 288.3 49.8258C291.536 61.9384 291.248 74.0349 287.436 86.1153C285.404 90.178 283.388 94.2102 281.387 98.2118C279.793 100.137 278.257 102.153 276.779 104.26C275.161 104.784 274.009 104.304 273.323 102.82C274.325 103.358 275.285 103.358 276.203 102.82C275.574 101.851 275.19 100.795 275.051 99.6519C275.134 96.3933 276.67 94.9532 279.659 95.3317C281.04 93.4729 281.712 91.3606 281.675 88.9954C282.734 87.2063 283.79 85.3826 284.844 83.5232C285.346 81.4708 285.346 79.3591 284.844 77.1869C285.257 76.305 285.833 75.5372 286.572 74.8828C286.434 73.8569 286.242 72.8011 285.996 71.7147C287.11 65.375 287.205 59.2306 286.284 53.282C285.046 49.6962 283.222 46.4319 280.811 43.4896C280.932 43.152 281.124 42.864 281.387 42.6255C280.519 41.7575 279.751 40.7978 279.083 39.7454C279.275 39.5536 279.468 39.3612 279.659 39.1694C279.083 38.8814 278.507 38.5934 277.931 38.3054C277.409 36.545 276.545 35.0094 275.339 33.6972C271.372 30.3032 267.627 26.7509 264.107 23.0407C258.319 19.7148 252.367 16.6429 246.25 13.8244C243.202 13.1245 240.13 12.5485 237.034 12.0963C237.418 11.9045 237.802 11.7121 238.186 11.5203C236.485 11.0065 234.949 11.2945 233.578 12.3843C232.94 12.0836 232.268 11.8918 231.561 11.8083C227.675 12.9235 223.835 12.9235 220.041 11.8083C218.695 12.0381 217.255 12.0381 215.721 11.8083C216.105 11.4241 216.489 11.0405 216.873 10.6562C219.103 9.88437 221.407 9.40454 223.785 9.21619C229.158 8.92817 234.534 8.83255 239.914 8.92817Z" fill="black"/>
<path fill-rule="evenodd" clip-rule="evenodd" d="M270.443 22.7528C272.555 23.713 274.091 25.2487 275.051 27.361C273.323 26.0171 271.787 24.4809 270.443 22.7528Z" fill="black"/>
<path fill-rule="evenodd" clip-rule="evenodd" d="M44.6417 36.0013C44.6417 36.1931 44.6417 36.3855 44.6417 36.5773C43.6948 36.7006 42.8307 36.5082 42.0496 36.0013C40.7795 33.6725 40.4915 31.2722 41.1856 28.801C41.9252 28.407 42.5974 28.5032 43.2017 29.089C44.1331 31.2814 44.6129 33.5855 44.6417 36.0013Z" fill="black"/>
<path fill-rule="evenodd" clip-rule="evenodd" d="M214.569 30.2411C211.838 30.3765 209.15 30.7607 206.505 31.3932C204.033 31.2192 201.729 31.6028 199.592 32.5452C199.4 32.5452 199.208 32.5452 199.016 32.5452C194.776 33.0141 190.552 33.5901 186.344 34.2733C185.718 34.2042 185.334 33.82 185.192 33.1212C185.216 32.5936 185.408 32.2094 185.768 31.9692C185.768 32.5452 185.768 33.1212 185.768 33.6973C187.79 33.4674 189.71 33.0832 191.528 32.5452C196.99 31.9312 202.367 31.0671 207.657 29.9531C210.07 29.4854 212.374 29.5816 214.569 30.2411Z" fill="black"/>
<path fill-rule="evenodd" clip-rule="evenodd" d="M56.1622 33.1215C56.2929 34.523 55.7169 35.4827 54.4341 36.0017C53.6663 36.0017 52.8978 36.0017 52.13 36.0017C51.8777 32.2247 53.2216 29.1527 56.1622 26.7853C56.354 27.4575 56.5464 28.1291 56.7382 28.8014C56.498 30.2403 56.3056 31.6803 56.1622 33.1215Z" fill="black"/>
<path fill-rule="evenodd" clip-rule="evenodd" d="M215.721 30.2413C215.337 30.2413 214.953 30.2413 214.569 30.2413C212.373 29.5817 210.069 29.4855 207.656 29.9532C202.367 31.0673 196.99 31.9313 191.528 32.5453C192.331 31.463 193.483 30.887 194.984 30.8173C200.462 30.1116 205.935 29.3438 211.401 28.5132C212.649 28.705 213.896 28.8974 215.145 29.0892C215.354 29.4826 215.546 29.8668 215.721 30.2413Z" fill="black"/>
<path fill-rule="evenodd" clip-rule="evenodd" d="M206.504 31.3934C204.318 32.0368 202.014 32.4204 199.592 32.5454C201.729 31.603 204.033 31.2194 206.504 31.3934Z" fill="black"/>
<path fill-rule="evenodd" clip-rule="evenodd" d="M187.496 30.2411C187.473 30.8649 187.281 31.4409 186.92 31.9692C188.409 32.5337 189.945 32.7255 191.528 32.5452C189.71 33.0832 187.79 33.4674 185.767 33.6972C185.767 33.1212 185.767 32.5452 185.767 31.9692C186.152 31.2013 186.728 30.6253 187.496 30.2411Z" fill="black"/>
<path fill-rule="evenodd" clip-rule="evenodd" d="M56.1624 25.6332C56.8979 26.321 57.2821 27.2806 57.3144 28.5133C57.3824 30.2333 56.9987 31.769 56.1624 33.1215C56.3058 31.6803 56.4982 30.2402 56.7384 28.8013C56.5466 28.1291 56.3542 27.4574 56.1624 26.7852C53.2218 29.1527 51.8779 32.2246 52.1302 36.0016C52.898 36.0016 53.6665 36.0016 54.4343 36.0016C53.8093 37.2009 52.9453 37.3933 51.8422 36.5776C51.5553 34.8599 51.4591 33.1319 51.5542 31.3934C52.4349 28.9735 53.9712 27.0537 56.1624 25.6332Z" fill="black"/>
<path fill-rule="evenodd" clip-rule="evenodd" d="M199.016 32.5452C194.983 33.9651 190.759 34.7329 186.343 34.8493C186.343 34.6574 186.343 34.4651 186.343 34.2732C190.551 33.5901 194.775 33.014 199.016 32.5452Z" fill="black"/>
<path fill-rule="evenodd" clip-rule="evenodd" d="M35.4254 31.9692C39.7289 36.1258 40.9771 41.1182 39.1696 46.9458C38.5302 47.8312 37.6662 48.2148 36.5775 48.0979C35.8096 47.1376 35.0412 46.178 34.2734 45.2177C35.3886 45.655 36.4444 46.231 37.4415 46.9458C37.9858 46.7125 38.3701 46.3283 38.5936 45.7938C39.222 42.5698 38.8378 39.4978 37.4415 36.5774C36.2376 35.8338 35.4692 36.218 35.1374 37.7294C33.7786 35.7416 33.1064 36.222 33.1213 39.1695C33.3713 41.0318 33.7555 42.8561 34.2734 44.6417C33.0989 43.829 32.5228 42.6769 32.5453 41.1856C32.1438 37.7145 32.7198 34.4507 34.2734 31.3932C34.6668 31.6023 35.051 31.7941 35.4254 31.9692Z" fill="black"/>
<path fill-rule="evenodd" clip-rule="evenodd" d="M62.4984 41.7618C61.3861 43.4749 59.8504 44.7232 57.8902 45.506C56.9617 45.9207 56.0977 45.8251 55.2981 45.218C53.7302 41.6023 54.4024 38.5298 57.3142 36.0016C55.8626 38.6617 55.2866 41.5418 55.5861 44.6419C57.8828 44.9236 59.2266 43.9634 59.6183 41.7618C60.1943 41.7618 60.7704 41.7618 61.3464 41.7618C62.4391 38.8984 63.2069 35.9221 63.6505 32.8335C63.4587 32.5455 63.2663 32.2574 63.0745 31.9694C61.8026 33.1065 60.4587 34.1624 59.0423 35.1376C58.4962 35.4158 57.9202 35.5114 57.3142 35.4256C58.0821 34.4653 58.8505 33.5057 59.6183 32.5455C60.5181 32.4112 61.2859 32.027 61.9224 31.3934C62.8538 31.0835 63.8141 30.8917 64.8025 30.8174C64.7092 34.6514 63.9414 38.2999 62.4984 41.7618Z" fill="black"/>
<path fill-rule="evenodd" clip-rule="evenodd" d="M35.4255 31.9692C35.0511 31.794 34.6669 31.6022 34.2735 31.3931C32.72 34.4507 32.1439 37.7144 32.5454 41.1855C31.9827 39.5802 31.7908 37.8521 31.9694 36.0013C31.9395 34.6171 32.1313 33.2733 32.5454 31.9692C32.9861 31.301 33.5621 30.7249 34.2735 30.2411C35.0909 30.532 35.4745 31.108 35.4255 31.9692Z" fill="black"/>
<path fill-rule="evenodd" clip-rule="evenodd" d="M57.3143 36.0015C57.3143 35.8097 57.3143 35.6173 57.3143 35.4255C57.9202 35.5113 58.4963 35.4157 59.0423 35.1375C60.4588 34.1623 61.8026 33.1064 63.0745 31.9694C63.2663 32.2574 63.4587 32.5454 63.6505 32.8334C63.207 35.922 62.4391 38.8983 61.3464 41.7618C60.7704 41.7618 60.1944 41.7618 59.6184 41.7618C59.2267 43.9633 57.8828 44.9235 55.5862 44.6419C55.2867 41.5417 55.8627 38.6616 57.3143 36.0015Z" fill="black"/>
<path fill-rule="evenodd" clip-rule="evenodd" d="M41.1857 26.209C41.5699 26.209 41.9536 26.209 42.3378 26.209C43.6275 28.1531 44.5877 30.2648 45.2179 32.5452C45.3878 33.8327 45.1954 34.9847 44.6419 36.0014C44.6131 33.5855 44.1332 31.2814 43.2018 29.0891C42.5976 28.5033 41.9253 28.4071 41.1857 28.8011C40.4916 31.2722 40.7796 33.6725 42.0498 36.0014C42.8308 36.5083 43.6949 36.7007 44.6419 36.5774C44.3239 37.8464 43.5561 38.3262 42.3378 38.0175C39.0573 34.324 38.6737 30.388 41.1857 26.209Z" fill="black"/>
<path fill-rule="evenodd" clip-rule="evenodd" d="M69.4109 34.2736C69.9869 34.2736 70.5629 34.2736 71.139 34.2736C70.923 37.164 69.5791 39.2763 67.1068 40.6098C66.5792 40.585 66.195 40.3932 65.9547 40.0338C65.8643 39.2429 65.9605 38.4745 66.2428 37.7297C67.2617 36.5103 68.3176 35.3582 69.4109 34.2736Z" fill="black"/>
<path fill-rule="evenodd" clip-rule="evenodd" d="M25.6331 34.2736C27.807 35.1019 29.1509 36.6381 29.6653 38.8817C29.6653 39.842 29.6653 40.8016 29.6653 41.7619C27.8554 41.5896 26.6072 40.6294 25.9211 38.8817C25.6349 37.3576 25.5387 35.8213 25.6331 34.2736Z" fill="black"/>
<path fill-rule="evenodd" clip-rule="evenodd" d="M214.569 30.2411C214.569 30.4329 214.569 30.6253 214.569 30.8171C213.59 30.7249 212.63 30.8206 211.689 31.1051C211.88 31.2969 212.073 31.4893 212.265 31.6811C210.728 32.2572 210.728 32.8332 212.265 33.4092C210.955 34.1897 210.955 35.0538 212.265 36.0013C210.754 38.2806 209.026 40.3929 207.08 42.3376C201.303 49.4561 195.543 56.5602 189.8 63.6504C190.788 61.8688 191.555 59.9489 192.104 57.8902C194.599 57.0175 195.655 55.2895 195.272 52.706C193.544 52.8978 192.584 53.858 192.392 55.5861C191.816 55.7779 191.24 55.9703 190.664 56.1621C189.597 54.5222 189.885 53.0821 191.528 51.842C192.074 51.5637 192.65 51.4681 193.256 51.554C193.094 49.8904 193.862 49.0264 195.56 48.9618C194.885 48.7205 194.309 48.3369 193.832 47.8098C194.55 46.97 194.55 46.1059 193.832 45.2177C194.843 45.2983 195.803 45.0103 196.712 44.3537C196.065 43.7523 195.297 43.3687 194.408 43.2016C196.586 42.9902 196.97 42.2224 195.56 40.8975C196.15 40.1101 195.862 39.6303 194.696 39.4575C193.622 39.9575 192.566 39.7651 191.528 38.8814C190.567 39.6493 189.608 39.6493 188.648 38.8814C188.084 39.1562 187.604 39.5398 187.208 40.0335C185.86 40.0398 184.516 40.0398 183.175 40.0335C178.56 42.2621 173.856 43.6066 169.063 44.0657C168.597 44.2431 168.213 44.5311 167.911 44.9297C160.308 45.3611 152.916 46.6088 145.734 48.6738C144.93 47.9164 144.354 48.1088 144.006 49.2499C143.402 48.664 142.729 48.5678 141.99 48.9618C142.374 49.1537 142.758 49.3461 143.142 49.5379C142.413 49.7159 141.74 50.0039 141.126 50.4019C139.959 50.103 138.807 49.9106 137.67 49.8259C136.284 50.2717 134.844 50.5597 133.349 50.6899C132.026 51.3155 130.874 52.1795 129.893 53.282C129.556 53.1616 129.268 52.9692 129.029 52.706C126.989 53.4433 124.973 54.3073 122.981 55.2981C124.726 55.6086 126.454 55.9928 128.165 56.4502C124.728 56.9836 121.367 56.6955 118.085 55.5861C116.161 56.4755 114.145 56.8591 112.036 56.7382C112.127 55.9473 112.031 55.1789 111.748 54.4341C111.163 55.8903 110.49 55.8903 109.732 54.4341C109.348 55.0101 108.965 55.5861 108.58 56.1621C107.011 55.074 105.762 53.7296 104.836 52.13C104.476 53.5649 103.996 53.5649 103.396 52.13C102.612 53.0009 102.419 53.865 102.82 54.7221C102.518 55.1207 102.133 55.4087 101.668 55.5861C99.3692 52.467 98.7931 52.8512 99.94 56.7382C100.791 56.5872 101.559 56.7791 102.244 57.3142C101.731 57.9421 101.155 57.9421 100.516 57.3142C98.8841 58.0722 98.4043 59.2243 99.076 60.7703C95.8652 61.2853 92.4091 61.2853 88.7075 60.7703C87.9535 62.1476 87.3775 62.1476 86.9795 60.7703C86.4898 61.6401 86.01 62.5042 85.5394 63.3624C86.4178 65.7155 87.2819 65.8117 88.1315 63.6504C89.0388 65.7904 90.6712 67.0386 93.0277 67.3946C92.7046 68.2967 93.0888 69.0645 94.1798 69.6987C95.8341 69.8801 97.466 70.1682 99.076 70.5627C100.705 69.9723 102.145 70.3559 103.396 71.7148C104.483 70.7741 105.347 70.9659 105.988 72.2908C107.586 71.5627 108.45 72.1387 108.58 74.0189C105.398 73.1433 102.134 72.7591 98.7879 72.8668C92.0755 71.6877 86.2191 68.8076 81.2192 64.2265C80.4468 62.7737 79.967 61.2375 79.7792 59.6183C84.824 58.9057 89.8158 57.9455 94.7558 56.7382C95.2489 50.2233 95.4413 43.6953 95.3318 37.1534C100.568 36.5048 105.752 35.5445 110.884 34.2733C112.863 34.7825 114.783 35.4547 116.645 36.2893C117.21 40.7518 117.402 45.2638 117.221 49.8259C131.004 47.2724 144.829 44.9683 158.694 42.9136C161.358 42.7621 163.854 42.1861 166.183 41.1855C167.923 41.0104 169.651 40.7224 171.367 40.3215C172.585 39.0542 173.93 37.9022 175.399 36.8654C179.007 35.9443 182.655 35.2721 186.344 34.8493C190.759 34.7329 194.983 33.9651 199.016 32.5452C199.208 32.5452 199.4 32.5452 199.592 32.5452C202.014 32.4202 204.318 32.0366 206.504 31.3931C209.149 30.7607 211.838 30.3765 214.569 30.2411Z" fill="black"/>
<path fill-rule="evenodd" clip-rule="evenodd" d="M34.2733 45.218C34.2733 45.0261 34.2733 44.8337 34.2733 44.6419C33.7555 42.8563 33.3713 41.032 33.1213 39.1697C33.1063 36.2222 33.7785 35.7418 35.1374 37.7296C35.4691 36.2182 36.2376 35.834 37.4415 36.5776C38.8377 39.498 39.2219 42.57 38.5935 45.794C38.37 46.3285 37.9858 46.7127 37.4415 46.946C36.4444 46.2312 35.3885 45.6552 34.2733 45.218Z" fill="black"/>
<path fill-rule="evenodd" clip-rule="evenodd" d="M49.826 38.3054C49.826 39.0733 49.826 39.8417 49.826 40.6095C48.9608 38.6395 47.8087 38.4471 46.3698 40.0335C46.8306 37.4639 47.9827 36.8878 49.826 38.3054Z" fill="black"/>
<path fill-rule="evenodd" clip-rule="evenodd" d="M189.8 63.6504C185.777 69.2061 181.553 74.5821 177.127 79.779C176.308 79.8994 175.54 80.1874 174.823 80.643C173.944 83.0583 172.312 84.6902 169.927 85.5392C169.735 85.3474 169.543 85.155 169.351 84.9632C169.068 85.5675 169.163 86.1435 169.639 86.6913C168.496 87.386 167.344 87.386 166.183 86.6913C165.523 87.4263 165.523 88.1941 166.183 88.9954C164.762 89.3542 163.418 89.8346 162.151 90.4354C162.565 91.6578 163.238 91.9458 164.167 91.2995C165.41 92.5633 165.218 93.3311 163.591 93.6036C162.205 93.4866 161.053 92.9106 160.135 91.8755C159.583 93.1479 158.911 93.0523 158.118 91.5875C155.896 91.7223 153.783 91.1463 151.782 89.8594C149.873 87.9482 147.665 86.5081 145.158 85.5392C144.866 84.6775 145.154 84.0053 146.022 83.5232C143.886 82.8003 141.87 81.9362 139.974 80.9311C139.072 81.2542 138.304 80.87 137.67 79.779C136.453 81.1741 135.301 81.1741 134.214 79.779C133.225 80.385 132.649 80.0014 132.485 78.627C130.583 78.0705 128.759 78.0705 127.013 78.627C125.709 78.207 124.941 77.5348 124.709 76.6109C122.105 76.4024 119.417 76.0182 116.645 75.4588C117.281 74.8074 117.089 74.3269 116.069 74.0188C113.706 73.9295 111.402 73.9295 109.157 74.0188C108.965 74.0188 108.772 74.0188 108.58 74.0188C108.45 72.1386 107.586 71.5626 105.988 72.2907C105.347 70.9659 104.483 70.774 103.396 71.7147C102.145 70.3558 100.705 69.9722 99.0761 70.5626C97.4661 70.1681 95.8342 69.88 94.1799 69.6986C93.0889 69.0644 92.7047 68.2966 93.0279 67.3945C90.6713 67.0385 89.0389 65.7903 88.1317 63.6504C87.282 65.8116 86.418 65.7154 85.5396 63.3623C86.0102 62.5041 86.49 61.64 86.9796 60.7702C87.3776 62.1475 87.9537 62.1475 88.7077 60.7702C92.4092 61.2852 95.8653 61.2852 99.0761 60.7702C98.4045 59.2242 98.8843 58.0721 100.516 57.3141C101.155 57.942 101.731 57.942 102.244 57.3141C101.559 56.779 100.791 56.5872 99.9401 56.7381C98.7933 52.8511 99.3693 52.4669 101.668 55.586C102.134 55.4086 102.518 55.1206 102.82 54.722C102.419 53.8649 102.612 53.0008 103.396 52.1299C103.996 53.5648 104.476 53.5648 104.836 52.1299C105.763 53.7295 107.011 55.0739 108.58 56.162C108.965 55.586 109.348 55.01 109.733 54.434C110.491 55.8902 111.163 55.8902 111.749 54.434C112.031 55.1788 112.127 55.9472 112.037 56.7381C114.145 56.859 116.162 56.4754 118.085 55.586C121.368 56.6954 124.728 56.9835 128.165 56.4501C126.454 55.9927 124.726 55.6085 122.981 55.298C124.973 54.3073 126.989 53.4432 129.029 52.7059C129.268 52.9692 129.556 53.1615 129.893 53.2819C130.874 52.1794 132.026 51.3154 133.349 50.6898C134.844 50.5596 136.284 50.2716 137.67 49.8258C138.807 49.9105 139.959 50.1029 141.126 50.4018C141.74 50.0038 142.413 49.7158 143.142 49.5378C142.758 49.346 142.374 49.1536 141.99 48.9618C142.729 48.5678 143.402 48.664 144.006 49.2498C144.354 48.1087 144.93 47.9163 145.734 48.6737C152.916 46.6087 160.309 45.361 167.911 44.9296C168.213 44.531 168.598 44.243 169.063 44.0656C173.856 43.6065 178.56 42.262 183.176 40.0334C184.516 40.0397 185.86 40.0397 187.208 40.0334C187.605 39.5397 188.084 39.1561 188.648 38.8813C189.608 39.6492 190.568 39.6492 191.528 38.8813C192.566 39.765 193.622 39.9574 194.696 39.4574C195.862 39.6302 196.15 40.11 195.56 40.8974C196.97 42.2223 196.586 42.9901 194.408 43.2015C195.297 43.3686 196.065 43.7522 196.712 44.3536C195.803 45.0102 194.843 45.2982 193.832 45.2176C194.55 46.1058 194.55 46.9699 193.832 47.8097C194.309 48.3368 194.885 48.7204 195.56 48.9618C193.862 49.0263 193.095 49.8903 193.256 51.5539C192.65 51.468 192.074 51.5637 191.528 51.8419C189.885 53.0821 189.597 54.5221 190.664 56.162C191.24 55.9702 191.816 55.7778 192.392 55.586C192.584 53.858 193.544 52.8977 195.272 52.7059C195.655 55.2894 194.599 57.0174 192.104 57.8901C191.556 59.9488 190.788 61.8687 189.8 63.6504Z" fill="black"/>
<path fill-rule="evenodd" clip-rule="evenodd" d="M49.8261 40.6094C50.8981 43.7631 51.6665 47.0269 52.1302 50.4018C52.3168 54.3498 52.125 58.1902 51.5542 61.9222C52.1031 55.7761 51.3353 49.824 49.2501 44.0655C48.6867 44.3403 48.2069 44.7239 47.81 45.2176C47.3302 44.6415 46.8498 44.0655 46.37 43.4895C44.9564 44.4129 43.8044 45.5649 42.9138 46.9456C43.4697 44.2971 44.6217 41.993 46.37 40.0334C47.8089 38.447 48.9609 38.6394 49.8261 40.6094Z" fill="black"/>
<path fill-rule="evenodd" clip-rule="evenodd" d="M214.569 30.8171C214.569 30.6253 214.569 30.4329 214.569 30.2411C214.953 30.2411 215.337 30.2411 215.721 30.2411C220.93 36.6021 225.922 43.1308 230.697 49.8259C230.124 49.8754 229.644 49.683 229.257 49.2499C224.488 42.9603 219.592 36.8164 214.569 30.8171Z" fill="black"/>
<path fill-rule="evenodd" clip-rule="evenodd" d="M279.083 31.3935C279.845 31.2955 280.517 31.4874 281.099 31.9695C282.106 33.7909 283.258 35.519 284.556 37.1537C286.862 40.99 288.11 45.214 288.3 49.8262C286.824 45.4721 285 41.2481 282.828 37.1537C281.43 35.3156 280.182 33.3952 279.083 31.3935Z" fill="black"/>
<path fill-rule="evenodd" clip-rule="evenodd" d="M166.183 41.1855C163.854 42.1861 161.358 42.7621 158.694 42.9136C158.758 42.5582 158.95 42.2702 159.27 42.0496C161.58 41.761 163.884 41.473 166.183 41.1855Z" fill="black"/>
<path fill-rule="evenodd" clip-rule="evenodd" d="M51.554 61.9224C51.554 62.6902 51.554 63.4586 51.554 64.2265C51.3622 64.2265 51.1698 64.2265 50.978 64.2265C49.8928 64.3486 49.1249 64.9246 48.6739 65.9545C48.0351 65.3267 47.4591 65.3267 46.9458 65.9545C47.3755 66.6665 47.5674 67.4349 47.5219 68.2586C46.7604 68.3566 46.0881 68.1647 45.5058 67.6826C44.6083 65.4551 43.5519 63.3428 42.3376 61.3463C42.2196 56.5268 42.412 51.7268 42.9137 46.9458C43.8042 45.565 44.9562 44.413 46.3698 43.4896C46.8496 44.0656 47.33 44.6417 47.8099 45.2177C48.2067 44.724 48.6866 44.3404 49.2499 44.0656C51.3351 49.8242 52.103 55.7762 51.554 61.9224Z" fill="black"/>
<path fill-rule="evenodd" clip-rule="evenodd" d="M78.0512 48.098C78.0512 47.5219 78.0512 46.9459 78.0512 46.3699C76.8617 46.3797 75.7097 46.5715 74.5951 46.9459C75.1665 46.0669 76.0305 45.6827 77.1872 45.7939C79.546 45.8543 79.834 46.6222 78.0512 48.098Z" fill="black"/>
<path fill-rule="evenodd" clip-rule="evenodd" d="M238.762 59.0424C238.186 58.6582 237.61 58.2745 237.034 57.8903C235.357 54.8685 233.245 52.1802 230.697 49.826C225.922 43.1309 220.93 36.6022 215.721 30.2412C215.546 29.8668 215.354 29.4826 215.145 29.0892C213.897 28.8973 212.649 28.7049 211.401 28.5131C205.935 29.3438 200.463 30.1116 194.984 30.8172C199.433 29.3403 204.041 28.1883 208.809 27.3611C211.239 28.0777 213.639 28.0777 216.009 27.3611C217.161 28.1289 218.313 28.8973 219.465 29.6652C219.747 30.41 219.843 31.1784 219.753 31.9693C220.359 31.8834 220.935 31.9791 221.481 32.2573C222.015 34.9018 223.551 36.6299 226.089 37.4415C225.826 37.68 225.634 37.968 225.513 38.3055C226.888 40.9431 228.616 43.3429 230.697 45.5058C230.434 45.7443 230.242 46.0323 230.121 46.3699C230.977 47.4079 231.553 48.5599 231.85 49.826C233.054 49.7212 234.206 49.9136 235.306 50.402C235.811 51.8432 236.58 53.0909 237.61 54.1462C237.144 54.3236 236.76 54.6116 236.458 55.0102C237.444 56.2567 238.212 57.6006 238.762 59.0424Z" fill="black"/>
<path fill-rule="evenodd" clip-rule="evenodd" d="M20.4489 46.37C20.4489 46.5618 20.4489 46.7542 20.4489 46.946C20.5555 47.923 21.0359 48.6908 21.889 49.2501C22.1735 50.1914 22.2691 51.1516 22.177 52.1302C21.2167 52.1302 20.2571 52.1302 19.2968 52.1302C18.2508 51.1982 17.483 50.0462 16.9928 48.6741C16.8125 47.0918 17.0043 45.5555 17.5688 44.0659C18.54 44.8476 19.4996 45.6154 20.4489 46.37Z" fill="black"/>
<path fill-rule="evenodd" clip-rule="evenodd" d="M31.3932 48.0979C33.3258 48.8784 34.6702 50.2228 35.4254 52.13C36.2381 54.6881 37.294 57.1841 38.5935 59.6183C38.8804 61.529 38.9766 63.4489 38.8815 65.3786C32.4295 64.7893 28.3017 61.3332 26.497 55.0101C26.2021 51.5143 25.7217 48.0581 25.0569 44.6417C27.1537 45.7678 29.2654 46.9199 31.3932 48.0979Z" fill="black"/>
<path fill-rule="evenodd" clip-rule="evenodd" d="M20.4489 46.9458C20.8331 47.1376 21.2167 47.33 21.6009 47.5218C23.0283 49.1514 23.6043 51.0713 23.329 53.2821C22.3687 53.2821 21.4091 53.2821 20.4489 53.2821C19.8728 53.0902 19.4886 52.706 19.2968 52.13C20.257 52.13 21.2167 52.13 22.1769 52.13C22.2691 51.1513 22.1735 50.1911 21.8889 49.2499C21.0358 48.6906 20.5554 47.9227 20.4489 46.9458Z" fill="black"/>
<path fill-rule="evenodd" clip-rule="evenodd" d="M78.0511 48.0981C76.6479 51.4234 74.152 53.1515 70.5628 53.2823C70.3992 52.1792 70.591 51.2195 71.1388 50.4022C71.523 48.4823 72.675 47.3302 74.5949 46.946C75.7095 46.5716 76.8616 46.3798 78.0511 46.37C78.0511 46.946 78.0511 47.522 78.0511 48.0981Z" fill="black"/>
<path fill-rule="evenodd" clip-rule="evenodd" d="M71.1389 50.4022C72.9263 49.1246 74.8468 48.1644 76.8992 47.5221C77.0161 48.6108 76.6325 49.4748 75.7471 50.1142C74.3739 51.2098 72.8376 51.882 71.1389 52.1303C71.1389 51.5543 71.1389 50.9782 71.1389 50.4022Z" fill="black"/>
<path fill-rule="evenodd" clip-rule="evenodd" d="M214.569 30.8174C219.592 36.8166 224.489 42.9605 229.257 49.2501C229.644 49.6833 230.124 49.8757 230.697 49.8261C230.818 50.6452 231.106 51.4131 231.562 52.1302C233.262 54.2033 235.086 56.1238 237.034 57.8905C237.368 59.1859 238.136 60.1456 239.338 60.7706C241.363 64.0539 243.667 67.1258 246.25 69.9869C247.216 71.162 248.176 72.3141 249.13 73.4431C250.918 76.0651 252.838 78.5616 254.89 80.9314C255.856 82.1065 256.817 83.2585 257.771 84.3875C259.506 86.7135 261.234 89.0176 262.955 91.2998C263.704 92.9887 264.856 94.3331 266.411 95.332C267.908 98.1706 269.828 100.667 272.171 102.82C274.284 105.416 276.3 108.104 278.219 110.885C278.665 111.951 278.377 112.72 277.355 113.189C256.437 86.8016 235.22 60.6882 213.705 34.8495C213.122 35.1698 212.643 35.5534 212.265 36.0016C210.955 35.054 210.955 34.19 212.265 33.4095C210.728 32.8334 210.728 32.2574 212.265 31.6814C212.073 31.4896 211.881 31.2972 211.689 31.1054C212.63 30.8208 213.59 30.7252 214.569 30.8174Z" fill="black"/>
<path fill-rule="evenodd" clip-rule="evenodd" d="M230.697 49.8258C233.244 52.18 235.357 54.8683 237.034 57.8901C235.085 56.1235 233.262 54.203 231.561 52.1299C231.106 51.4128 230.818 50.6449 230.697 49.8258Z" fill="black"/>
<path fill-rule="evenodd" clip-rule="evenodd" d="M220.329 44.642C219.44 44.7589 218.671 45.1431 218.025 45.794C217.009 44.7698 215.857 44.002 214.569 43.4899C214.143 43.4145 213.759 43.5107 213.417 43.7779C196.889 63.6841 180.568 83.7493 164.455 103.972C163.77 104.508 163.002 104.699 162.151 104.548C162.211 103.279 162.594 102.127 163.303 101.092C178.691 82.0339 193.668 62.641 208.233 42.9139C210.046 40.8431 211.871 38.7308 213.705 36.5776C216.035 39.1928 218.243 41.8811 220.329 44.642Z" fill="black"/>
<path fill-rule="evenodd" clip-rule="evenodd" d="M42.9137 46.9458C42.412 51.7268 42.2196 56.5268 42.3377 61.3464C41.7675 57.9997 41.5756 54.5435 41.7617 50.978C41.5722 49.4066 41.9558 48.0621 42.9137 46.9458Z" fill="black"/>
<path fill-rule="evenodd" clip-rule="evenodd" d="M79.7792 55.0102C77.0702 54.9739 74.3819 55.1663 71.7149 55.5862C73.0438 54.6951 74.5795 54.3115 76.3231 54.4342C77.588 54.437 78.7401 54.6289 79.7792 55.0102Z" fill="black"/>
<path fill-rule="evenodd" clip-rule="evenodd" d="M79.7793 55.0102C78.1929 59.1973 75.121 62.3654 70.5629 64.5146C68.6851 64.9662 66.8608 64.87 65.0907 64.2266C64.5475 61.6656 65.4115 59.7457 67.6828 58.4663C68.5422 56.8402 69.8866 55.88 71.7149 55.5862C74.3819 55.1663 77.0702 54.9739 79.7793 55.0102Z" fill="black"/>
<path fill-rule="evenodd" clip-rule="evenodd" d="M67.6828 58.4662C69.7819 57.097 72.086 56.6166 74.5951 57.0261C73.8976 57.6672 73.8976 58.3395 74.5951 59.0422C72.7415 62.3538 69.8614 63.6976 65.9548 63.0744C66.3678 61.4483 66.9438 59.912 67.6828 58.4662Z" fill="black"/>
<path fill-rule="evenodd" clip-rule="evenodd" d="M237.034 57.8903C237.61 58.2745 238.186 58.6581 238.762 59.0423C239.113 59.5555 239.305 60.1316 239.338 60.7704C238.136 60.1454 237.368 59.1857 237.034 57.8903Z" fill="black"/>
<path fill-rule="evenodd" clip-rule="evenodd" d="M35.4254 52.13C36.8078 53.1645 37.768 54.509 38.3055 56.1622C39.5687 58.6938 40.1447 61.3821 40.0335 64.2265C39.8417 64.8025 39.4575 65.1867 38.8815 65.3785C38.9765 63.4489 38.8803 61.529 38.5935 59.6183C37.294 57.184 36.2381 54.6881 35.4254 52.13Z" fill="black"/>
<path fill-rule="evenodd" clip-rule="evenodd" d="M56.7384 64.8028C55.9706 64.8028 55.2021 64.8028 54.4343 64.8028C54.0547 63.1007 53.8629 61.3726 53.8583 59.6186C54.0501 58.8508 54.2425 58.0824 54.4343 57.3145C56.8115 53.215 60.2677 50.3349 64.8027 48.6742C64.7998 52.6142 63.9358 56.4545 62.2106 60.1947C60.9831 62.4815 59.1588 64.0177 56.7384 64.8028Z" fill="black"/>
<path fill-rule="evenodd" clip-rule="evenodd" d="M24.481 42.3375C25.3807 42.4717 26.1486 42.8559 26.7851 43.4896C28.1445 45.2332 29.6808 46.7694 31.3933 48.0978C29.2654 46.9198 27.1537 45.7677 25.057 44.6416C25.7217 48.058 26.2022 51.5142 26.4971 55.01C28.3018 61.333 32.4295 64.7892 38.8816 65.3785C38.4012 66.0973 37.6333 66.4815 36.5775 66.5305C30.8092 64.5023 27.065 60.4702 25.345 54.434C24.621 50.8229 24.333 47.175 24.481 43.4896C24.481 43.1054 24.481 42.7217 24.481 42.3375Z" fill="black"/>
<path fill-rule="evenodd" clip-rule="evenodd" d="M14.6885 53.8583C16.8751 54.8773 19.1792 55.7413 21.6008 56.4504C23.4665 57.4504 24.811 58.8904 25.633 60.7706C25.633 61.7308 25.633 62.6904 25.633 63.6507C23.3093 63.6478 21.0052 63.456 18.7207 63.0747C18.5289 63.0747 18.3365 63.0747 18.1447 63.0747C14.6851 60.9543 12.5734 57.8824 11.8084 53.8583C12.7686 53.8583 13.7283 53.8583 14.6885 53.8583Z" fill="black"/>
<path fill-rule="evenodd" clip-rule="evenodd" d="M288.3 49.8258C288.674 50.0009 289.058 50.1927 289.452 50.4018C290.064 52.911 290.736 55.4069 291.468 57.8901C292.002 65.9948 291.714 74.0591 290.604 82.0831C290.028 82.0831 289.452 82.0831 288.876 82.0831C288.542 84.181 288.254 86.2933 288.012 88.4194C286.887 89.4775 286.311 90.822 286.284 92.4515C285.564 95.1848 283.932 97.1047 281.387 98.2118C283.388 94.2101 285.404 90.178 287.436 86.1153C291.248 74.0349 291.536 61.9384 288.3 49.8258Z" fill="black"/>
<path fill-rule="evenodd" clip-rule="evenodd" d="M25.6331 60.7703C27.0945 61.9983 27.0945 63.2466 25.6331 64.5144C23.007 65.1526 20.7029 64.6728 18.7208 63.0744C21.0053 63.4557 23.3094 63.6475 25.6331 63.6504C25.6331 62.6901 25.6331 61.7305 25.6331 60.7703Z" fill="black"/>
<path fill-rule="evenodd" clip-rule="evenodd" d="M53.8582 59.6187C53.8628 61.3726 54.0546 63.1007 54.4342 64.8029C55.202 64.8029 55.9704 64.8029 56.7383 64.8029C55.8541 65.5448 54.8944 65.5448 53.8582 64.8029C53.497 64.2746 53.3046 63.6986 53.2821 63.0748C53.1122 61.7874 53.3046 60.6353 53.8582 59.6187Z" fill="black"/>
<path fill-rule="evenodd" clip-rule="evenodd" d="M42.3378 61.3466C43.5521 63.3431 44.6085 65.4553 45.506 67.6828C46.0883 68.1649 46.7605 68.3568 47.522 68.2588C47.5675 67.4351 47.3757 66.6667 46.946 65.9547C47.4593 65.3269 48.0353 65.3269 48.6741 65.9547C49.1251 64.9248 49.893 64.3488 50.9782 64.2267C50.5128 66.8885 49.0727 68.8084 46.658 69.9869C46.2133 69.9034 45.8291 69.7116 45.506 69.4109C44.2796 67.4996 43.2238 65.5798 42.3378 63.6507C42.3378 62.8828 42.3378 62.1144 42.3378 61.3466Z" fill="black"/>
<path fill-rule="evenodd" clip-rule="evenodd" d="M14.6885 65.9548C19.0502 66.3961 23.2742 67.1639 27.3611 68.2589C23.8583 68.2509 20.4021 67.8667 16.9926 67.1069C17.367 69.2036 18.2311 71.1235 19.5847 72.8671C21.3347 74.5197 22.9666 76.2478 24.4809 78.0513C19.7408 75.23 16.4765 71.1978 14.6885 65.9548Z" fill="black"/>
<path fill-rule="evenodd" clip-rule="evenodd" d="M239.338 60.7703C241.258 62.8825 243.178 64.9942 245.098 67.1065C245.64 67.9994 246.024 68.959 246.25 69.9866C243.667 67.1255 241.363 64.0536 239.338 60.7703Z" fill="black"/>
<path fill-rule="evenodd" clip-rule="evenodd" d="M59.0425 67.1068C58.3455 68.7698 57.1934 70.1137 55.5863 71.139C54.8185 71.139 54.0501 71.139 53.2822 71.139C53.7465 70.4316 54.3225 69.8556 55.0103 69.4109C56.4481 68.7888 57.7925 68.0204 59.0425 67.1068Z" fill="black"/>
<path fill-rule="evenodd" clip-rule="evenodd" d="M27.3611 68.2589C32.3466 69.222 35.9945 71.9103 38.3055 76.3232C38.3055 77.4752 38.3055 78.6273 38.3055 79.7793C35.6449 80.2482 32.9566 80.44 30.2412 80.3553C28.0368 80.2102 26.1169 79.4424 24.481 78.0513C22.9666 76.2477 21.3347 74.5197 19.5848 72.867C18.2311 71.1234 17.3671 69.2035 16.9927 67.1068C20.4022 67.8666 23.8583 68.2508 27.3611 68.2589Z" fill="black"/>
<path fill-rule="evenodd" clip-rule="evenodd" d="M76.8991 72.291C74.6543 73.2247 72.542 74.473 70.5628 76.0352C67.09 77.1907 63.5376 78.0547 59.9064 78.6273C58.604 78.6624 57.4519 78.2782 56.4502 77.4752C56.0401 75.7829 56.3281 74.2472 57.3143 72.867C59.9928 72.0047 62.4887 70.7565 64.8026 69.1229C67.8745 68.7387 70.947 68.7387 74.0189 69.1229C73.8271 69.3147 73.6347 69.5071 73.4429 69.6989C75.0754 70.9569 75.8438 70.6689 75.747 68.8349C76.7072 68.8349 77.6669 68.8349 78.6271 68.8349C78.2205 70.086 77.6444 71.238 76.8991 72.291Z" fill="black"/>
<path fill-rule="evenodd" clip-rule="evenodd" d="M76.8991 72.2909C77.6444 71.2379 78.2205 70.0858 78.6271 68.8347C77.6669 68.8347 76.7073 68.8347 75.747 68.8347C75.8438 70.6688 75.0754 70.9568 73.4429 69.6988C73.6347 69.5069 73.8271 69.3146 74.019 69.1227C70.947 68.7385 67.8745 68.7385 64.8026 69.1227C62.4887 70.7563 59.9928 72.0046 57.3143 72.8669C58.835 70.7707 60.7549 69.2351 63.0745 68.2587C65.4834 67.4223 67.9799 67.0387 70.5628 67.1067C74.1054 66.8538 77.3697 67.6222 80.3552 69.4107C79.5424 70.8013 78.3904 71.7615 76.8991 72.2909Z" fill="black"/>
<path fill-rule="evenodd" clip-rule="evenodd" d="M245.098 67.1068C246.21 68.3326 247.458 69.4846 248.842 70.563C249.33 71.5382 249.81 72.4984 250.282 73.4431C249.898 73.4431 249.514 73.4431 249.13 73.4431C248.176 72.3141 247.216 71.162 246.25 69.9869C246.024 68.9593 245.64 67.9996 245.098 67.1068Z" fill="black"/>
<path fill-rule="evenodd" clip-rule="evenodd" d="M98.7879 72.8671C102.134 72.7593 105.398 73.1435 108.58 74.0191C108.772 74.0191 108.965 74.0191 109.156 74.0191C109.795 74.4742 110.563 74.7622 111.46 74.8831C111.076 75.075 110.693 75.2673 110.308 75.4592C110.836 75.6193 111.22 75.9073 111.46 76.3232C107.025 75.6959 102.801 74.5439 98.7879 72.8671Z" fill="black"/>
<path fill-rule="evenodd" clip-rule="evenodd" d="M207.08 42.3379C207.652 42.2388 208.035 42.4312 208.232 42.9139C193.668 62.641 178.691 82.034 163.303 101.092C162.894 100.572 162.318 100.38 161.575 100.516C166.759 93.604 171.943 86.6917 177.127 79.7794C181.553 74.5825 185.777 69.2065 189.8 63.6508C195.543 56.5605 201.303 49.4564 207.08 42.3379Z" fill="black"/>
<path fill-rule="evenodd" clip-rule="evenodd" d="M249.13 73.443C249.514 73.443 249.898 73.443 250.282 73.443C251.231 75.1555 252.383 76.6918 253.738 78.0512C254.28 78.944 254.664 79.9037 254.89 80.9313C252.837 78.5615 250.918 76.0651 249.13 73.443Z" fill="black"/>
<path fill-rule="evenodd" clip-rule="evenodd" d="M76.8991 72.291C75.0351 74.1902 72.9229 75.822 70.5629 77.1872C66.6494 79.5869 62.4254 80.3548 57.8904 79.4913C56.5189 79.3629 55.5592 78.6906 55.0103 77.4752C54.8714 75.4482 55.6398 73.9125 57.3143 72.867C56.3282 74.2472 56.0402 75.7829 56.4503 77.4752C57.452 78.2782 58.6041 78.6624 59.9065 78.6273C63.5377 78.0547 67.09 77.1907 70.5629 76.0352C72.5421 74.473 74.6544 73.2247 76.8991 72.291Z" fill="black"/>
<path fill-rule="evenodd" clip-rule="evenodd" d="M177.127 79.7792C171.943 86.6915 166.759 93.6038 161.575 100.516C161.412 100.971 161.124 101.355 160.711 101.668C157.557 95.4425 152.853 90.7381 146.598 87.5555C135.316 82.4785 123.603 78.7343 111.461 76.3231C111.22 75.9072 110.836 75.6192 110.309 75.459C110.693 75.2672 111.076 75.0748 111.461 74.883C110.563 74.7621 109.795 74.474 109.157 74.019C111.402 73.9297 113.706 73.9297 116.069 74.019C117.089 74.3272 117.281 74.8076 116.645 75.459C119.417 76.0184 122.105 76.4026 124.709 76.6111C124.941 77.535 125.709 78.2073 127.013 78.6272C128.759 78.0707 130.583 78.0707 132.486 78.6272C132.649 80.0016 133.225 80.3852 134.214 79.7792C135.301 81.1744 136.453 81.1744 137.67 79.7792C138.304 80.8702 139.072 81.2544 139.974 80.9313C141.87 81.9364 143.886 82.8005 146.022 83.5234C145.154 84.0055 144.866 84.6777 145.158 85.5395C147.665 86.5083 149.873 87.9484 151.782 89.8596C153.783 91.1465 155.896 91.7225 158.119 91.5877C158.911 93.0525 159.583 93.1481 160.135 91.8757C161.053 92.9108 162.205 93.4869 163.591 93.6038C165.218 93.3313 165.41 92.5635 164.167 91.2997C163.238 91.946 162.565 91.658 162.151 90.4357C163.419 89.8349 164.762 89.3545 166.183 88.9956C165.523 88.1943 165.523 87.4265 166.183 86.6915C167.344 87.3862 168.496 87.3862 169.639 86.6915C169.163 86.1437 169.068 85.5677 169.351 84.9634C169.543 85.1552 169.735 85.3476 169.927 85.5395C172.312 84.6904 173.944 83.0585 174.823 80.6433C175.54 80.1876 176.308 79.8996 177.127 79.7792Z" fill="black"/>
<path fill-rule="evenodd" clip-rule="evenodd" d="M38.3056 76.323C38.4974 76.323 38.6898 76.323 38.8816 76.323C39.1454 77.99 38.7612 79.4301 37.7296 80.6432C35.126 81.1121 32.6295 81.0159 30.2413 80.3552C32.9566 80.4398 35.6449 80.248 38.3056 79.7791C38.3056 78.6271 38.3056 77.475 38.3056 76.323Z" fill="black"/>
<path fill-rule="evenodd" clip-rule="evenodd" d="M253.738 78.0513C254.851 79.277 256.099 80.4291 257.482 81.5074C257.97 82.4826 258.45 83.4428 258.922 84.3875C258.538 84.3875 258.155 84.3875 257.77 84.3875C256.816 83.2585 255.856 82.1065 254.89 80.9314C254.664 79.9038 254.28 78.9441 253.738 78.0513Z" fill="black"/>
<path fill-rule="evenodd" clip-rule="evenodd" d="M257.771 84.3875C258.155 84.3875 258.538 84.3875 258.923 84.3875C260.045 86.1852 261.293 87.9133 262.667 89.5717C262.945 90.1177 263.041 90.6938 262.955 91.2997C261.234 89.0175 259.505 86.7134 257.771 84.3875Z" fill="black"/>
<path fill-rule="evenodd" clip-rule="evenodd" d="M53.8581 86.6917C61.8038 87.4439 69.6763 87.4439 77.4751 86.6917C78.0327 87.9053 78.2251 89.2498 78.0511 90.7238C77.4601 89.9445 76.6923 89.3684 75.747 88.9957C73.5593 88.4295 71.2552 88.2371 68.8347 88.4197C66.8751 87.8667 64.9552 87.8667 63.0745 88.4197C60.654 88.2371 58.3499 88.4295 56.1622 88.9957C55.2152 89.1743 54.6392 89.7503 54.4341 90.7238C53.8765 89.5101 53.6842 88.1657 53.8581 86.6917Z" fill="black"/>
<path fill-rule="evenodd" clip-rule="evenodd" d="M190.952 98.7878C190.38 93.9009 190.188 88.9085 190.376 83.8112C191.923 83.7168 193.46 83.813 194.984 84.0992C193.653 84.3855 192.309 84.4811 190.952 84.3872C190.952 88.8036 190.952 93.2194 190.952 97.6358C194.216 97.6358 197.48 97.6358 200.744 97.6358C200.744 93.0276 200.744 88.4194 200.744 83.8112C199.457 83.9812 198.305 83.7888 197.288 83.2352C198.801 82.8942 200.337 82.7024 201.896 82.6592C201.896 88.0352 201.896 93.4118 201.896 98.7878C198.248 98.7878 194.6 98.7878 190.952 98.7878Z" fill="black"/>
<path fill-rule="evenodd" clip-rule="evenodd" d="M214.569 43.4896C215.857 44.0017 217.009 44.7695 218.025 45.7937C218.671 45.1428 219.44 44.7586 220.329 44.6417C238.945 67.8641 257.762 90.905 276.779 113.764C276.983 115.447 276.407 116.791 275.051 117.797C254.676 93.1981 234.515 68.4291 214.569 43.4896Z" fill="black"/>
<path fill-rule="evenodd" clip-rule="evenodd" d="M277.355 113.189C276.971 113.189 276.779 113.38 276.779 113.765C257.762 90.9051 238.945 67.8641 220.329 44.6418C218.243 41.8809 216.035 39.1926 213.705 36.5774C211.871 38.7306 210.046 40.8429 208.233 42.9137C208.036 42.431 207.652 42.2386 207.081 42.3377C209.026 40.393 210.754 38.2807 212.265 36.0014C212.643 35.5533 213.122 35.1696 213.705 34.8494C235.22 60.688 256.436 86.8015 277.355 113.189Z" fill="black"/>
<path fill-rule="evenodd" clip-rule="evenodd" d="M82.6593 87.8437C85.3476 87.0759 88.0354 87.0759 90.7237 87.8437C90.3683 87.9076 90.0803 88.0995 89.8596 88.4197C89.3798 96.1073 89.476 103.787 90.1476 111.461C90.7237 111.749 91.2997 112.037 91.8757 112.325C88.2278 112.709 84.5792 112.709 80.9313 112.325C81.7216 112.093 82.4894 111.805 83.2354 111.461C83.907 103.787 84.0032 96.1073 83.5234 88.4197C83.3028 88.0995 83.0148 87.9076 82.6593 87.8437Z" fill="black"/>
<path fill-rule="evenodd" clip-rule="evenodd" d="M262.955 91.3C263.529 91.2504 264.008 91.4428 264.395 91.876C265.213 92.9733 265.886 94.1254 266.411 95.3321C264.856 94.3333 263.704 92.9889 262.955 91.3Z" fill="black"/>
<path fill-rule="evenodd" clip-rule="evenodd" d="M220.905 95.3318C219.217 95.7921 217.489 95.9839 215.721 95.9079C211.666 94.1326 210.226 91.06 211.401 86.6915C212.047 85.468 212.911 84.4122 213.993 83.5234C218.129 82.3673 221.49 83.4231 224.073 86.6915C225.173 90.427 224.118 93.3071 220.905 95.3318Z" fill="black"/>
<path fill-rule="evenodd" clip-rule="evenodd" d="M38.3056 83.8117C37.8368 85.0392 37.5487 86.3831 37.4416 87.8439C37.308 87.1313 37.0199 86.5553 36.5776 86.1158C32.8409 82.8526 29.2886 83.0444 25.9211 86.6918C25.5369 87.652 25.5369 88.6117 25.9211 89.5719C29.3479 92.6133 33.092 95.2054 37.1536 97.3482C38.0412 98.138 38.8097 99.002 39.4577 99.9404C39.9605 102.399 40.1524 104.895 40.0337 107.429C37.6138 111.664 33.8697 113.584 28.8012 113.189C25.9949 113.342 23.4028 112.669 21.0249 111.173C19.6068 108.845 19.6068 106.444 21.0249 103.973C23.3008 111.207 27.8128 113.128 34.5615 109.733C36.1571 108.153 36.3495 106.425 35.1375 104.549C31.4538 101.41 27.5179 98.6264 23.329 96.1962C18.8176 90.2274 19.9697 85.6193 26.7852 82.3716C29.5731 82.1263 32.357 82.2219 35.1375 82.6596C36.4595 82.6867 37.5159 83.0704 38.3056 83.8117Z" fill="black"/>
<path fill-rule="evenodd" clip-rule="evenodd" d="M48.0979 76.899C48.1451 77.9082 47.6653 78.4842 46.6578 78.6271C45.038 77.0073 43.4062 75.3754 41.7616 73.7309C41.2824 73.3346 40.8987 73.4308 40.6096 74.0189C45.2955 81.6086 46.9274 89.8647 45.5058 98.7879C45.1521 101.078 44.4799 103.189 43.4897 105.124C44.5674 98.2522 44.8554 91.3399 44.3537 84.3873C43.5358 81.2871 42.2875 78.407 40.6096 75.7469C38.9086 73.3708 37.0849 71.0668 35.1373 68.8347C34.741 68.3554 34.8372 67.9718 35.4254 67.6826C39.6038 70.5143 43.4442 73.7787 46.9458 77.475C47.3392 77.2659 47.7235 77.0741 48.0979 76.899Z" fill="black"/>
<path fill-rule="evenodd" clip-rule="evenodd" d="M68.8348 88.4196C68.6453 96.2017 68.8371 103.882 69.4109 111.461C69.9713 111.741 70.5474 112.029 71.1389 112.325C67.6828 112.709 64.2266 112.709 60.7705 112.325C61.3621 112.029 61.9381 111.741 62.4986 111.461C63.0723 103.882 63.2641 96.2017 63.0746 88.4196C64.9553 87.8666 66.8752 87.8666 68.8348 88.4196Z" fill="black"/>
<path fill-rule="evenodd" clip-rule="evenodd" d="M197.288 83.2354C198.305 83.7889 199.457 83.9813 200.744 83.8114C200.744 88.4196 200.744 93.0277 200.744 97.6359C197.48 97.6359 194.216 97.6359 190.952 97.6359C190.952 93.2196 190.952 88.8038 190.952 84.3874C192.309 84.4813 193.653 84.3857 194.984 84.0994C193.46 83.8131 191.924 83.7169 190.376 83.8114C190.188 88.9086 190.38 93.901 190.952 98.788C190.917 99.1008 190.725 99.2926 190.376 99.364C189.801 94.0012 189.608 88.6252 189.8 83.2354C192.296 83.2354 194.792 83.2354 197.288 83.2354Z" fill="black"/>
<path fill-rule="evenodd" clip-rule="evenodd" d="M266.411 95.3319C268.29 96.7541 269.923 98.4822 271.307 100.516C271.763 101.233 272.051 102.001 272.171 102.82C269.828 100.666 267.908 98.1706 266.411 95.3319Z" fill="black"/>
<path fill-rule="evenodd" clip-rule="evenodd" d="M220.905 95.3319C220.841 95.6873 220.649 95.9753 220.329 96.1959C218.678 96.6573 217.141 96.5611 215.721 95.9079C217.489 95.984 219.217 95.7922 220.905 95.3319Z" fill="black"/>
<path fill-rule="evenodd" clip-rule="evenodd" d="M49.8259 95.9077C50.626 98.6548 51.0102 101.535 50.978 104.548C50.1779 101.801 49.7937 98.9209 49.8259 95.9077Z" fill="black"/>
<path fill-rule="evenodd" clip-rule="evenodd" d="M53.2821 71.1389C54.05 71.1389 54.8184 71.1389 55.5862 71.1389C54.4733 72.7898 53.5131 74.5179 52.7061 76.3231C51.2585 78.5569 50.4907 81.0529 50.402 83.8114C49.8312 87.7359 49.6388 91.768 49.826 95.9079C49.7937 98.9211 50.1779 101.801 50.978 104.548C51.3922 105.852 51.584 107.196 51.554 108.58C50.6295 107.44 49.9573 106.096 49.538 104.548C47.7506 94.5468 48.4228 84.7544 51.554 75.1711C50.1209 75.2765 48.9688 75.8525 48.0979 76.8992C49.0092 74.2587 50.7372 72.3388 53.2821 71.1389Z" fill="black"/>
<path fill-rule="evenodd" clip-rule="evenodd" d="M48.098 76.8989C48.9689 75.8523 50.121 75.2763 51.5541 75.1708C48.4229 84.7541 47.7506 94.5465 49.538 104.548C49.9574 106.096 50.6296 107.44 51.5541 108.58C52.0749 108.989 52.2667 109.565 52.1301 110.308C52.1301 110.884 52.1301 111.46 52.1301 112.036C49.0582 112.036 45.9857 112.036 42.9138 112.036C42.9167 109.713 43.1085 107.409 43.4898 105.124C44.48 103.189 45.1522 101.077 45.5059 98.7878C46.9275 89.8646 45.2956 81.6085 40.6097 74.0188C40.8988 73.4307 41.2825 73.3345 41.7617 73.7308C43.4063 75.3753 45.0381 77.0072 46.6579 78.627C47.6654 78.4841 48.1452 77.9081 48.098 76.8989Z" fill="black"/>
<path fill-rule="evenodd" clip-rule="evenodd" d="M43.4897 105.124C43.1083 107.409 42.9165 109.713 42.9136 112.037C45.9856 112.037 49.0581 112.037 52.13 112.037C52.13 111.461 52.13 110.885 52.13 110.308C52.668 110.924 52.8604 111.692 52.706 112.613C49.0581 112.613 45.4096 112.613 41.7616 112.613C41.7184 109.91 42.2944 107.413 43.4897 105.124Z" fill="black"/>
<path fill-rule="evenodd" clip-rule="evenodd" d="M124.709 94.7558C125.129 97.4228 125.321 100.111 125.285 102.82C122.9 110.028 117.812 113.484 110.021 113.189C98.2311 112.074 93.6229 105.738 96.196 94.1797C98.2944 90.7415 101.271 88.3412 105.124 86.9794C112.539 85.1275 118.779 86.9512 123.845 92.4517C124.301 93.1688 124.589 93.9367 124.709 94.7558Z" fill="black"/>
<path fill-rule="evenodd" clip-rule="evenodd" d="M39.4576 116.645C32.5453 117.029 25.6331 117.412 18.7208 117.797C17.9915 117.457 17.2237 117.169 16.4167 116.933C24.0945 116.645 31.7752 116.548 39.4576 116.645Z" fill="black"/>
<path fill-rule="evenodd" clip-rule="evenodd" d="M19.2968 117.797C25.5519 117.804 31.6963 118.188 37.7296 118.949C34.6577 118.949 31.5852 118.949 28.5132 118.949C28.5132 124.325 28.5132 129.701 28.5132 135.077C31.3997 135.173 34.2798 135.077 37.1536 134.789C37.8477 133.997 38.6155 133.325 39.4577 132.773C40.2255 134.886 40.2255 136.997 39.4577 139.109C38.839 138.312 38.0712 137.64 37.1536 137.093C34.2798 136.806 31.3997 136.71 28.5132 136.805C28.5132 141.99 28.5132 147.174 28.5132 152.358C30.8173 152.358 33.1214 152.358 35.4255 152.358C29.9711 153.144 24.4033 153.529 18.7208 153.51C18.8838 153.056 19.1719 152.671 19.5849 152.358C20.0572 140.796 19.9616 129.275 19.2968 117.797Z" fill="black"/>
<path fill-rule="evenodd" clip-rule="evenodd" d="M39.4577 116.645C40.0337 116.645 40.6097 116.645 41.1857 116.645C41.7618 116.645 42.3378 116.645 42.9138 116.645C43.0924 118.495 42.9006 120.223 42.3378 121.829C41.3626 119.996 39.8269 119.036 37.7296 118.949C31.6963 118.188 25.5519 117.803 19.2968 117.797C19.105 117.797 18.9126 117.797 18.7208 117.797C25.6331 117.412 32.5454 117.029 39.4577 116.645Z" fill="black"/>
<path fill-rule="evenodd" clip-rule="evenodd" d="M129.317 121.829C122.789 122.213 116.261 122.597 109.733 122.981C109.278 122.818 108.894 122.53 108.581 122.117C115.49 121.829 122.402 121.733 129.317 121.829Z" fill="black"/>
<path fill-rule="evenodd" clip-rule="evenodd" d="M156.966 122.405C151.294 122.216 145.726 122.408 140.262 122.981C139.807 122.818 139.423 122.53 139.11 122.117C145.163 121.642 151.115 121.737 156.966 122.405Z" fill="black"/>
<path fill-rule="evenodd" clip-rule="evenodd" d="M246.826 122.981C242.794 122.213 238.762 122.213 234.73 122.981C234.225 123.056 233.841 122.865 233.577 122.405C238.57 121.637 243.562 121.637 248.554 122.405C248.079 122.915 247.503 123.107 246.826 122.981Z" fill="black"/>
<path fill-rule="evenodd" clip-rule="evenodd" d="M129.317 121.829C130.278 121.829 131.237 121.829 132.197 121.829C132.965 123.557 132.965 125.285 132.197 127.013C131.522 125.859 130.562 124.995 129.317 124.421C126.251 124.134 123.179 124.038 120.101 124.133C119.909 124.133 119.717 124.133 119.525 124.133C116.901 123.015 114.02 122.631 110.885 122.981C110.5 122.981 110.117 122.981 109.733 122.981C116.261 122.597 122.789 122.213 129.317 121.829Z" fill="black"/>
<path fill-rule="evenodd" clip-rule="evenodd" d="M132.197 121.829C132.232 121.516 132.424 121.324 132.773 121.253C133.541 124.133 133.541 127.013 132.773 129.893C132.225 129.003 132.033 128.043 132.197 127.013C132.965 125.285 132.965 123.557 132.197 121.829Z" fill="black"/>
<path fill-rule="evenodd" clip-rule="evenodd" d="M259.499 124.133C259.662 124.588 259.95 124.972 260.363 125.285C260.877 124.588 261.357 124.588 261.803 125.285C261.298 125.718 260.722 126.006 260.075 126.149C260.832 126.717 261.408 127.389 261.803 128.165C258.935 134.563 258.743 141.091 261.227 147.75C260.772 148.389 260.484 149.157 260.363 150.054C259.392 147.617 257.952 147.233 256.043 148.902C255.068 147.831 254.204 146.679 253.45 145.446C253.183 145.788 253.087 146.172 253.162 146.598C252.418 145.825 251.938 144.865 251.722 143.718C249.119 134.933 251.711 128.404 259.499 124.133Z" fill="black"/>
<path fill-rule="evenodd" clip-rule="evenodd" d="M140.262 122.981C145.726 122.408 151.294 122.217 156.966 122.405C157.542 122.405 158.118 122.405 158.694 122.405C156.523 122.708 154.795 123.284 153.51 124.133C152.377 123.995 151.321 124.187 150.342 124.709C149.958 134.117 149.958 143.526 150.342 152.934C151.291 153.635 152.347 154.115 153.51 154.374C148.71 154.758 143.91 154.758 139.11 154.374C140.273 154.115 141.329 153.635 142.278 152.934C142.662 143.334 142.662 133.734 142.278 124.133C141.637 123.669 140.965 123.285 140.262 122.981Z" fill="black"/>
<path fill-rule="evenodd" clip-rule="evenodd" d="M282.54 124.133C282.722 126.553 282.53 128.857 281.964 131.045C280.763 126.68 277.883 124.28 273.323 123.845C268.571 123.011 264.731 124.451 261.803 128.165C261.408 127.388 260.832 126.716 260.075 126.149C260.722 126.005 261.298 125.717 261.803 125.285C261.357 124.587 260.877 124.587 260.363 125.285C259.95 124.971 259.662 124.587 259.499 124.133C267.149 120.377 274.829 120.377 282.54 124.133Z" fill="black"/>
<path fill-rule="evenodd" clip-rule="evenodd" d="M78.6271 122.981C83.8988 122.408 89.2749 122.217 94.7557 122.405C105.607 124.135 108.199 129.703 102.532 139.11C98.6566 141.837 94.72 142.029 90.7236 139.686C96.2764 137.566 98.2925 133.534 96.7718 127.589C96.504 126.765 96.0236 126.093 95.3318 125.573C93.1699 124.427 90.8659 123.948 88.4195 124.133C88.3233 133.735 88.4195 143.336 88.7075 152.934C89.5663 153.801 90.6222 154.28 91.8756 154.374C87.0756 154.758 82.275 154.758 77.475 154.374C78.2573 153.836 79.0257 153.356 79.7791 152.934C80.4485 143.241 80.5441 133.448 80.0671 123.557C79.8465 123.237 79.5585 123.045 79.2031 122.981C79.0113 122.981 78.8189 122.981 78.6271 122.981Z" fill="black"/>
<path fill-rule="evenodd" clip-rule="evenodd" d="M119.525 124.133C119.717 124.133 119.909 124.133 120.101 124.133C120.101 128.55 120.101 132.965 120.101 137.382C123.017 137.512 125.897 137.32 128.741 136.806C129.39 137.588 129.39 138.356 128.741 139.11C127.226 138.405 125.593 138.021 123.845 137.958C122.405 138.15 120.965 138.342 119.525 138.534C122.106 138.918 124.603 139.302 127.013 139.686C124.709 139.686 122.405 139.686 120.101 139.686C119.909 139.686 119.717 139.686 119.525 139.686C118.105 137.9 117.529 135.788 117.797 133.35C117.731 131.7 118.019 130.164 118.661 128.741C118.853 131.43 119.045 134.117 119.237 136.806C119.525 132.586 119.62 128.362 119.525 124.133Z" fill="black"/>
<path fill-rule="evenodd" clip-rule="evenodd" d="M295.788 146.022C299.332 145.545 302.981 145.257 306.733 145.158C306.02 145.024 305.444 144.736 305.004 144.294C305.509 144.369 305.893 144.178 306.157 143.718C304.822 141.157 303.766 138.469 302.988 135.654C302.702 134.476 302.029 133.708 300.972 133.35C300.305 132.635 299.729 131.867 299.244 131.045C300.456 128.08 301.608 125.104 302.7 122.117C302.902 121.393 303.286 121.201 303.852 121.541C308.962 131.088 313.667 140.784 317.965 150.63C318.944 152.764 320.576 154.013 322.861 154.374C317.677 154.759 312.493 154.759 307.309 154.374C308.607 154.113 309.376 153.346 309.613 152.07C309.087 150.154 308.319 148.33 307.309 146.598C303.487 146.024 299.647 145.832 295.788 146.022Z" fill="black"/>
<path fill-rule="evenodd" clip-rule="evenodd" d="M282.54 124.133C283.295 126.734 283.295 129.422 282.54 132.198C282.08 131.934 281.888 131.55 281.963 131.045C282.53 128.858 282.722 126.554 282.54 124.133Z" fill="black"/>
<path fill-rule="evenodd" clip-rule="evenodd" d="M205.352 152.358C202.844 153.423 200.157 153.807 197.288 153.51C197.532 152.196 197.147 151.236 196.136 150.63C195.321 149.267 194.553 147.827 193.832 146.31C189.997 146.022 186.156 145.926 182.311 146.022C185.856 145.545 189.504 145.257 193.256 145.158C192.543 145.024 191.967 144.736 191.528 144.294C192.102 144.311 192.486 144.023 192.68 143.43C191.167 140.333 189.823 137.165 188.648 133.926C188.358 133.337 187.975 133.241 187.496 133.638C187.159 134.388 186.775 135.06 186.344 135.654C186.381 135.401 186.285 135.209 186.056 135.078C185.878 135.543 185.59 135.927 185.192 136.23C185.042 135.42 184.85 134.652 184.615 133.926C186.126 129.369 187.95 124.953 190.088 120.677C195.434 131.136 200.522 141.696 205.352 152.358Z" fill="black"/>
<path fill-rule="evenodd" clip-rule="evenodd" d="M70.5629 123.557C70.0923 124.979 69.8043 126.515 69.6988 128.165C69.5652 127.453 69.2772 126.877 68.8348 126.437C65.1045 122.889 61.1685 122.697 57.0263 125.861C56.6421 127.013 56.6421 128.165 57.0263 129.317C61.0959 132.649 65.4161 135.625 69.9869 138.245C71.1182 139.081 71.886 140.137 72.291 141.414C71.7938 140.859 71.4096 140.859 71.1389 141.414C71.6049 142.319 71.7973 143.279 71.7149 144.294C69.6994 144.155 69.5076 144.635 71.1389 145.734C69.8584 146.06 68.7064 146.54 67.6828 147.174C62.8776 143.052 57.7896 139.211 52.4181 135.653C49.5098 129.933 50.758 125.421 56.1623 122.117C60.9588 121.829 65.7588 121.733 70.5629 121.829C70.5629 122.405 70.5629 122.981 70.5629 123.557Z" fill="black"/>
<path fill-rule="evenodd" clip-rule="evenodd" d="M110.885 122.981C114.02 122.631 116.901 123.014 119.525 124.133C119.621 128.362 119.525 132.586 119.237 136.805C119.045 134.117 118.853 131.429 118.661 128.741C118.019 130.164 117.731 131.7 117.797 133.349C117.529 135.788 118.105 137.9 119.525 139.686C119.525 144.102 119.525 148.518 119.525 152.934C122.517 153.119 125.398 152.927 128.165 152.358C131.146 151.681 133.258 149.953 134.502 147.174C134.984 147.371 135.177 147.755 135.078 148.326C134.715 150.344 134.33 152.36 133.926 154.374C125.477 154.758 117.029 154.758 108.581 154.374C109.743 154.115 110.799 153.635 111.749 152.934C112.133 143.334 112.133 133.734 111.749 124.133C111.336 123.82 111.048 123.435 110.885 122.981Z" fill="black"/>
<path fill-rule="evenodd" clip-rule="evenodd" d="M129.893 133.35C129.928 133.037 130.12 132.845 130.469 132.774C131.237 136.614 131.237 140.454 130.469 144.294C129.959 143.819 129.767 143.243 129.893 142.566C130.661 139.494 130.661 136.422 129.893 133.35Z" fill="black"/>
<path fill-rule="evenodd" clip-rule="evenodd" d="M184.616 133.926C184.85 134.652 185.042 135.42 185.192 136.23C185.59 135.927 185.878 135.543 186.056 135.078C186.285 135.209 186.381 135.401 186.344 135.654C185.544 138.594 184.584 141.474 183.464 144.294C186.152 144.294 188.84 144.294 191.528 144.294C191.967 144.736 192.543 145.024 193.256 145.158C189.504 145.257 185.856 145.545 182.311 146.022C180.646 148.316 180.07 150.812 180.583 153.51C181.159 153.798 181.735 154.086 182.311 154.374C176.935 154.759 171.559 154.759 166.183 154.374C164.725 154.156 163.382 153.676 162.151 152.934C162.185 152.622 162.377 152.43 162.727 152.358C164.93 153.306 167.234 153.69 169.639 153.51C169.502 152.767 169.694 152.191 170.215 151.782C171.777 154.549 173.601 154.741 175.687 152.358C178.521 146.115 181.498 139.97 184.616 133.926Z" fill="black"/>
<path fill-rule="evenodd" clip-rule="evenodd" d="M129.893 133.349C130.661 136.421 130.661 139.494 129.893 142.566C129.509 141.029 128.55 140.07 127.013 139.686C124.603 139.302 122.107 138.918 119.525 138.534C120.965 138.342 122.405 138.149 123.845 137.958C125.593 138.02 127.226 138.405 128.741 139.11C129.39 138.356 129.39 137.588 128.741 136.806C129.652 135.86 130.036 134.708 129.893 133.349Z" fill="black"/>
<path fill-rule="evenodd" clip-rule="evenodd" d="M236.458 142.566C236.492 142.878 236.684 143.07 237.034 143.142C237.796 136.713 237.796 130.377 237.034 124.133C236.58 123.209 235.812 122.825 234.73 122.981C238.762 122.213 242.794 122.213 246.826 122.981C246.252 122.931 245.773 123.124 245.386 123.557C245.194 134.117 245.002 144.678 244.81 155.238C236.901 147.998 228.933 140.893 220.905 133.925C220.87 133.613 220.679 133.421 220.329 133.349C219.567 139.585 219.567 145.73 220.329 151.782C220.709 153.596 221.861 154.46 223.785 154.374C213.801 154.758 203.816 154.758 193.832 154.374C195.641 153.798 196.408 152.55 196.136 150.63C197.147 151.236 197.532 152.196 197.288 153.51C200.157 153.807 202.844 153.423 205.352 152.358C207.78 154.641 210.179 154.641 212.553 152.358C212.913 141.959 212.913 131.59 212.553 121.253C220.461 128.493 228.43 135.598 236.458 142.566Z" fill="black"/>
<path fill-rule="evenodd" clip-rule="evenodd" d="M237.034 124.133C237.796 130.377 237.796 136.714 237.034 143.142C236.684 143.071 236.492 142.879 236.458 142.566C237.03 136.525 237.223 130.381 237.034 124.133Z" fill="black"/>
<path fill-rule="evenodd" clip-rule="evenodd" d="M220.905 133.925C220.332 139.774 220.14 145.726 220.329 151.782C219.567 145.73 219.567 139.585 220.329 133.349C220.678 133.421 220.87 133.613 220.905 133.925Z" fill="black"/>
<path fill-rule="evenodd" clip-rule="evenodd" d="M158.694 122.405C167.658 124.033 169.866 128.833 165.319 136.805C164.121 138.125 162.681 139.085 160.998 139.686C164.495 143.425 167.567 147.457 170.215 151.782C169.694 152.19 169.502 152.767 169.639 153.51C167.234 153.69 164.93 153.306 162.727 152.358C162.377 152.43 162.185 152.621 162.15 152.934C158.537 149.358 155.944 145.134 154.374 140.262C152.555 139.142 152.843 138.47 155.238 138.246C159.35 134.953 160.214 131.017 157.83 126.437C156.438 125.499 154.998 124.731 153.51 124.133C154.795 123.284 156.523 122.708 158.694 122.405Z" fill="black"/>
<path fill-rule="evenodd" clip-rule="evenodd" d="M135.077 148.326C135.177 147.755 134.984 147.371 134.501 147.174C134.575 146.258 134.959 145.49 135.653 144.87C136.378 146.194 136.185 147.346 135.077 148.326Z" fill="black"/>
<path fill-rule="evenodd" clip-rule="evenodd" d="M299.244 131.045C299.728 131.867 300.305 132.635 300.972 133.349C299.468 136.935 298.124 140.583 296.94 144.294C299.628 144.294 302.316 144.294 305.004 144.294C305.444 144.736 306.02 145.024 306.732 145.158C302.981 145.257 299.332 145.545 295.788 146.022C294.007 148.239 293.431 150.735 294.06 153.51C294.636 153.798 295.212 154.086 295.788 154.374C292.332 154.758 288.876 154.758 285.419 154.374C286.879 154.077 288.127 153.405 289.164 152.358C292.205 145.123 295.565 138.019 299.244 131.045Z" fill="black"/>
<path fill-rule="evenodd" clip-rule="evenodd" d="M119.525 139.686C119.717 139.686 119.909 139.686 120.101 139.686C120.101 143.91 120.101 148.134 120.101 152.358C122.789 152.358 125.477 152.358 128.165 152.358C125.398 152.927 122.517 153.119 119.525 152.934C119.525 148.518 119.525 144.102 119.525 139.686Z" fill="black"/>
<path fill-rule="evenodd" clip-rule="evenodd" d="M18.7208 153.51C24.4033 153.529 29.9711 153.145 35.4255 152.358C40.942 151.932 44.4944 149.052 46.0819 143.718C45.5105 147.356 44.8383 151.004 44.0658 154.662C34.8477 154.759 25.6313 154.662 16.4167 154.374C17.2237 154.138 17.9915 153.85 18.7208 153.51Z" fill="black"/>
<path fill-rule="evenodd" clip-rule="evenodd" d="M253.162 146.598C253.087 146.172 253.183 145.788 253.45 145.446C254.204 146.679 255.068 147.831 256.042 148.902C257.952 147.233 259.392 147.616 260.363 150.054C260.484 149.157 260.772 148.389 261.227 147.75C266.608 154.547 272.848 155.315 279.947 150.054C281.511 147.379 282.568 144.499 283.116 141.414C285.337 145.898 284.569 149.642 280.811 152.646C279.659 153.222 278.507 153.798 277.355 154.374C274.647 154.711 272.055 155.383 269.579 156.39C269.483 156.582 269.387 156.775 269.291 156.966C271.482 157.246 273.306 158.206 274.763 159.847C274.573 164.065 272.268 166.177 267.851 166.183C267.179 165.991 266.507 165.799 265.835 165.607C267.528 165.144 269.065 164.376 270.443 163.303C270.946 162.008 271.139 160.665 271.019 159.271C266.519 159.444 265.751 158.196 268.715 155.526C262.02 155.051 256.836 152.075 253.162 146.598Z" fill="black"/>
<path fill-rule="evenodd" clip-rule="evenodd" d="M72.291 141.414C74.0859 147.332 72.166 151.652 66.5308 154.374C61.3794 155.805 56.387 155.421 51.5541 153.222C51.0467 152.815 50.663 152.334 50.4021 151.782C50.4689 149.847 50.6607 147.927 50.9781 146.022C50.852 145.345 51.0438 144.769 51.5541 144.294C53.292 152.168 57.9002 154.76 65.3787 152.07C67.0037 150.837 67.7715 149.205 67.6828 147.174C68.7064 146.541 69.8584 146.06 71.1389 145.734C69.5076 144.635 69.6995 144.155 71.715 144.294C71.7973 143.279 71.6049 142.319 71.1389 141.414C71.4097 140.859 71.7939 140.859 72.291 141.414Z" fill="black"/>
<path fill-rule="evenodd" clip-rule="evenodd" d="M144.87 158.694C139.483 158.656 134.107 158.849 128.741 159.27C131.967 158.439 135.327 158.055 138.822 158.118C140.943 158.119 142.959 158.311 144.87 158.694Z" fill="black"/>
<path fill-rule="evenodd" clip-rule="evenodd" d="M144.87 158.694C152.444 158.699 159.548 160.428 166.183 163.878C166.567 164.455 166.951 165.031 167.335 165.607C163.75 164.598 160.389 163.062 157.254 160.998C156.678 161.19 156.102 161.383 155.526 161.574C154.274 160.926 152.929 160.542 151.494 160.422C147.557 160.652 143.621 160.843 139.686 160.998C134.761 159.845 129.768 159.557 124.709 160.134C118.964 161.38 113.204 162.436 107.428 163.302C114.265 160.914 121.369 159.569 128.741 159.27C134.107 158.849 139.483 158.656 144.87 158.694Z" fill="black"/>
<path fill-rule="evenodd" clip-rule="evenodd" d="M312.493 179.431C308.511 179.844 304.671 180.612 300.972 181.735C300.204 181.735 299.436 181.735 298.668 181.735C292.701 181.853 286.748 181.661 280.811 181.159C277.222 180.923 273.957 179.771 271.019 177.703C269.13 176.035 268.842 174.115 270.155 171.943C273.433 169.189 277.177 167.556 281.387 167.047C292.177 165.065 302.93 165.257 313.645 167.623C315.826 168.425 317.937 169.385 319.981 170.503C321.718 173.182 321.142 175.294 318.253 176.839C316.34 177.763 314.42 178.627 312.493 179.431Z" fill="black"/>
<path fill-rule="evenodd" clip-rule="evenodd" d="M166.183 163.879C168.223 164.457 170.047 165.417 171.655 166.759C185.034 169.391 198.571 170.351 212.265 169.639C212.265 169.831 212.265 170.023 212.265 170.215C211.497 170.215 210.728 170.215 209.96 170.215C198.187 170.616 186.474 170.04 174.823 168.487C172.148 168.014 169.652 167.054 167.335 165.607C166.951 165.031 166.567 164.455 166.183 163.879Z" fill="black"/>
<path fill-rule="evenodd" clip-rule="evenodd" d="M249.706 169.639C237.223 169.657 224.742 169.849 212.265 170.215C212.265 170.023 212.265 169.831 212.265 169.639C224.838 168.963 237.318 168.963 249.706 169.639Z" fill="black"/>
<path fill-rule="evenodd" clip-rule="evenodd" d="M167.335 165.607C169.652 167.054 172.148 168.014 174.823 168.487C177.39 169.344 180.079 170.017 182.887 170.503C192.011 170.98 201.035 170.884 209.961 170.215C210.728 170.215 211.497 170.215 212.265 170.215C224.742 169.849 237.223 169.657 249.706 169.639C253.602 169.555 257.058 170.707 260.075 173.095C260.738 174.596 260.834 176.132 260.363 177.703C256.631 184.613 250.967 189.125 243.37 191.24C232.296 194.605 220.968 196.525 209.385 197C187.846 197.661 166.341 197.085 144.87 195.272C132.545 194.018 120.449 191.714 108.58 188.36C101.054 185.713 95.0059 181.201 90.4357 174.823C90.0515 173.863 90.0515 172.903 90.4357 171.943C91.7393 169.992 93.3717 168.361 95.3319 167.047C99.2685 165.534 103.301 164.286 107.428 163.303C113.204 162.436 118.964 161.38 124.709 160.134C129.768 159.557 134.761 159.845 139.686 160.998C143.621 160.843 147.557 160.652 151.494 160.422C152.929 160.542 154.274 160.926 155.526 161.574C156.102 161.383 156.678 161.19 157.254 160.998C160.389 163.062 163.75 164.598 167.335 165.607Z" fill="black"/>
<path fill-rule="evenodd" clip-rule="evenodd" d="M139.686 161.575C141.317 161.92 142.949 162.304 144.582 162.727C145.288 162.518 145.959 162.23 146.598 161.863C148.921 161.661 151.13 161.565 153.222 161.575C154.458 163.872 156.283 165.408 158.695 166.183C159.079 168.487 159.462 168.487 159.847 166.183C160.423 166.183 160.999 166.183 161.575 166.183C161.266 167.76 161.843 168.816 163.303 169.351C165.166 169.466 166.894 169.946 168.487 170.791C169.094 170.687 169.67 170.496 170.215 170.215C170.904 170.414 170.904 170.702 170.215 171.079C171.409 172.316 172.465 172.221 173.383 170.791C174.755 171.33 176.195 171.521 177.703 171.367C177.605 172.129 177.797 172.801 178.279 173.383C179.269 173.582 180.229 173.87 181.159 174.247C199.995 174.934 219.004 174.934 238.186 174.247C238.186 174.823 238.186 175.399 238.186 175.975C240.403 175.698 241.555 176.658 241.642 178.855C240.965 178.729 240.389 178.921 239.914 179.431C240.386 180.359 241.155 180.744 242.218 180.583C242.399 181.578 242.495 182.538 242.506 183.464C240.874 184.328 239.626 185.576 238.762 187.208C227.526 190.991 216.006 192.623 204.2 192.104C198.245 192.969 192.292 193.353 186.344 193.256C181.484 192.985 176.684 192.409 171.943 191.528C171.175 191.72 170.407 191.912 169.639 192.104C157.192 191.151 144.712 190.479 132.197 190.088C128.656 188.477 125.008 187.901 121.253 188.36C118.525 187.026 115.645 186.162 112.613 185.768C111.631 184.729 110.575 184.345 109.445 184.616C107.891 183.056 106.067 182 103.972 181.447C102.36 180.225 101.208 178.688 100.516 176.839C99.9701 176.561 99.3941 176.465 98.7881 176.551C98.6649 175.604 98.8572 174.74 99.3641 173.959C98.9799 173.575 98.5963 173.191 98.2121 172.807C100.903 170.769 103.688 168.944 106.564 167.335C106.888 167.636 107.272 167.827 107.716 167.911C110.635 167.296 113.323 166.144 115.781 164.455C116.225 164.538 116.61 164.73 116.933 165.031C122.809 164.006 128.665 163.046 134.502 162.151C135.966 162.2 137.406 162.393 138.822 162.727C139.415 162.533 139.703 162.149 139.686 161.575Z" fill="black"/>
<path fill-rule="evenodd" clip-rule="evenodd" d="M174.823 168.487C186.474 170.04 198.187 170.616 209.96 170.215C201.035 170.884 192.011 170.98 182.887 170.503C180.079 170.017 177.39 169.345 174.823 168.487Z" fill="black"/>
<path fill-rule="evenodd" clip-rule="evenodd" d="M292.332 167.335C295.876 166.67 299.524 166.574 303.276 167.047C302.811 167.224 302.427 167.512 302.124 167.911C305.043 168.461 307.924 169.132 310.765 169.927C311.414 170.936 311.99 171.993 312.493 173.095C308.779 176.682 304.363 179.081 299.244 180.295C294.252 180.679 289.26 180.679 284.267 180.295C281.808 178.603 279.12 177.451 276.203 176.839C276.587 176.647 276.971 176.455 277.355 176.263C276.627 175.493 276.338 174.629 276.491 173.671C278.173 172.73 279.806 171.674 281.387 170.503C287.429 169.773 293.382 168.813 299.244 167.623C296.948 167.335 294.644 167.239 292.332 167.335Z" fill="black"/>
<path fill-rule="evenodd" clip-rule="evenodd" d="M312.493 179.431C308.89 180.997 305.049 181.765 300.972 181.735C304.671 180.612 308.511 179.844 312.493 179.431Z" fill="black"/>
<path fill-rule="evenodd" clip-rule="evenodd" d="M280.811 181.16C286.748 181.661 292.701 181.853 298.668 181.736C293.585 182.402 288.401 182.498 283.115 182.024C282.218 181.903 281.45 181.615 280.811 181.16Z" fill="black"/>
</g>
</g>
<defs>
<clipPath id="clip0_152_25">
<rect width="330.061" height="197" fill="white"/>
</clipPath>
<clipPath id="clip1_152_25">
<rect width="330.061" height="197" fill="white"/>
</clipPath>
</defs>
</svg>
